<?xml version="1.0" standalone="no"?>
<!DOCTYPE svg PUBLIC "-//W3C//DTD SVG 20010904//EN"
 "http://www.w3.org/TR/2001/REC-SVG-20010904/DTD/svg10.dtd">
<svg version="1.0" xmlns="http://www.w3.org/2000/svg"
 width="320.000000pt" height="320.000000pt" viewBox="0 0 320.000000 320.000000"
 preserveAspectRatio="xMidYMid meet">
<metadata>
Created by potrace 1.11, written by Peter Selinger 2001-2013
</metadata>
<g transform="translate(0.000000,320.000000) scale(0.100000,-0.100000)"
fill="#000000" stroke="none">
<path d="M1485 3189 c-510 -35 -968 -313 -1242 -754 -157 -252 -234 -528 -234
-835 0 -563 279 -1061 762 -1361 246 -153 525 -230 829 -230 561 0 1060 278
1357 756 157 252 234 528 234 835 0 307 -77 583 -234 835 -317 511 -873 795
-1472 754z m-195 -933 l0 -85 -57 -11 c-32 -6 -66 -14 -75 -16 -16 -5 -17 -40
-20 -437 l-3 -432 -32 -66 c-73 -147 -219 -229 -409 -229 -105 0 -175 14 -249
49 -108 51 -172 135 -194 256 -21 113 -31 105 124 105 l134 0 6 -37 c9 -57 42
-117 75 -137 86 -50 197 -23 246 60 l29 49 3 407 c3 454 10 408 -68 423 -74
14 -70 9 -70 101 l0 84 280 0 280 0 0 -84z m874 60 c127 -37 204 -91 251 -178
25 -45 30 -67 33 -145 4 -81 1 -97 -20 -145 -28 -60 -73 -110 -127 -138 -26
-14 -31 -19 -16 -20 35 -1 124 -59 155 -101 47 -65 63 -128 58 -228 -7 -143
-64 -239 -177 -300 -105 -56 -153 -61 -584 -61 l-388 0 3 82 3 82 35 7 c19 4
52 10 73 13 l37 7 0 474 c0 443 -1 474 -17 479 -10 2 -44 10 -75 16 l-58 11 0
78 c0 43 3 81 8 85 4 4 174 6 377 3 311 -4 380 -7 429 -21z m776 -1196 l0
-120 -135 0 -135 0 0 120 0 120 135 0 135 0 0 -120z"/>
<path d="M1770 1950 l0 -172 143 4 c125 3 147 6 185 26 108 57 107 231 -1 289
-25 14 -64 18 -179 21 l-148 4 0 -172z"/>
<path d="M1770 1401 l0 -191 148 0 c172 0 214 9 263 59 80 79 58 237 -40 295
-30 17 -58 20 -203 24 l-168 5 0 -192z"/>
</g>
</svg>
