<?xml version="1.0" standalone="no"?>
<!DOCTYPE svg PUBLIC "-//W3C//DTD SVG 20010904//EN"
 "http://www.w3.org/TR/2001/REC-SVG-20010904/DTD/svg10.dtd">
<svg version="1.0" xmlns="http://www.w3.org/2000/svg"
 width="320.000000pt" height="320.000000pt" viewBox="0 0 320.000000 320.000000"
 preserveAspectRatio="xMidYMid meet">
<metadata>
Created by potrace 1.11, written by Peter Selinger 2001-2013
</metadata>
<g transform="translate(0.000000,320.000000) scale(0.100000,-0.100000)"
fill="#000000" stroke="none">
<path d="M1436 3189 c-713 -75 -1284 -611 -1412 -1324 -24 -137 -24 -393 0
-530 40 -224 137 -463 260 -640 355 -513 968 -772 1586 -669 496 83 931 407
1160 864 222 443 222 977 0 1420 -300 598 -936 948 -1594 879z m-128 -1026
l-3 -78 -60 -10 -60 -11 -5 -399 c-5 -380 -7 -403 -27 -454 -48 -118 -133
-195 -256 -233 -58 -17 -86 -20 -180 -15 -126 5 -176 20 -254 73 -84 57 -127
141 -135 259 l-3 50 125 0 125 0 7 -49 c12 -88 70 -137 161 -138 88 -1 142 40
166 127 7 26 11 169 11 407 0 408 7 369 -70 383 -73 14 -70 10 -70 91 l0 74
265 0 266 0 -3 -77z m821 62 c131 -31 221 -96 263 -189 18 -40 23 -69 23 -136
0 -77 -3 -90 -31 -140 -21 -38 -46 -66 -82 -89 l-51 -34 58 -27 c117 -55 175
-180 152 -326 -18 -119 -75 -200 -174 -251 -101 -51 -134 -55 -534 -60 l-373
-5 0 80 0 80 50 11 c28 6 58 11 66 11 12 0 14 62 12 457 l-3 457 -60 11 -60
10 -3 78 -3 77 343 0 c270 0 357 -3 407 -15z m741 -1140 l0 -105 -120 0 -120
0 0 105 0 105 120 0 120 0 0 -105z"/>
<path d="M1770 1874 l0 -167 134 6 c109 4 141 9 175 27 55 27 81 71 81 135 0
70 -25 115 -80 143 -39 19 -59 22 -177 22 l-133 0 0 -166z"/>
<path d="M1770 1349 l0 -181 158 4 c138 4 162 7 200 27 107 55 109 250 3 309
-35 20 -53 22 -200 22 l-161 0 0 -181z"/>
</g>
</svg>
