<?xml version="1.0" standalone="no"?>
<!DOCTYPE svg PUBLIC "-//W3C//DTD SVG 20010904//EN"
 "http://www.w3.org/TR/2001/REC-SVG-20010904/DTD/svg10.dtd">
<svg version="1.0" xmlns="http://www.w3.org/2000/svg"
 width="558.000000pt" height="558.000000pt" viewBox="0 0 558.000000 558.000000"
 preserveAspectRatio="xMidYMid meet">
<metadata>
Created by potrace 1.11, written by Peter Selinger 2001-2013
</metadata>
<g transform="translate(0.000000,558.000000) scale(0.100000,-0.100000)"
fill="#000000" stroke="none">
<path d="M2545 5569 c-553 -52 -1067 -257 -1492 -597 -766 -613 -1155 -1577
-1028 -2547 138 -1051 869 -1938 1875 -2277 357 -120 755 -170 1110 -138 579
53 1079 252 1526 607 476 379 828 937 968 1533 284 1209 -259 2449 -1341 3068
-478 273 -1072 402 -1618 351z m-315 -1679 c0 -82 -2 -150 -4 -150 -2 0 -58
-11 -126 -25 -68 -14 -124 -25 -126 -25 -2 0 -5 -341 -6 -757 -4 -849 0 -799
-80 -963 -33 -69 -57 -101 -128 -172 -75 -74 -101 -93 -191 -136 -156 -76
-211 -87 -419 -86 -208 0 -301 19 -445 88 -220 108 -339 290 -352 544 l-6 102
242 0 241 0 0 -48 c0 -27 7 -72 16 -102 42 -142 143 -210 314 -210 66 0 86 4
139 31 79 39 133 105 161 196 19 63 20 91 20 788 0 681 -1 724 -17 729 -10 3
-58 12 -108 21 -146 26 -135 12 -135 173 0 76 3 142 7 145 3 4 231 7 505 7
l498 0 0 -150z m1530 117 c324 -72 504 -213 576 -453 28 -93 26 -279 -4 -367
-46 -132 -135 -233 -264 -299 l-52 -26 44 -12 c173 -47 309 -186 366 -375 25
-80 25 -273 1 -365 -72 -275 -286 -443 -629 -494 -88 -13 -219 -16 -767 -16
l-662 0 3 147 3 147 128 24 127 24 0 872 0 872 -127 25 -128 24 -3 148 -3 148
658 -4 c564 -3 669 -6 733 -20z m1480 -2197 l0 -210 -240 0 -240 0 0 210 0
210 240 0 240 0 0 -210z"/>
<path d="M3120 3330 l0 -322 238 4 c282 5 335 17 420 94 71 63 95 130 90 240
-7 145 -63 223 -197 276 -51 20 -76 22 -303 26 l-248 4 0 -322z"/>
<path d="M3120 2325 l0 -345 279 0 c252 0 285 2 345 20 139 43 207 134 214
288 7 147 -37 263 -122 322 -78 53 -129 60 -438 60 l-278 0 0 -345z"/>
</g>
</svg>
