<!-- Generator: Adobe Illustrator 19.0.0, SVG Export Plug-In . SVG Version: 6.00 Build 0)  -->
<svg xmlns:rdf="http://www.w3.org/1999/02/22-rdf-syntax-ns#" xmlns="http://www.w3.org/2000/svg" version="1.1" xml:space="preserve" viewBox="0 0 239.99999 239.99999" height="100%" width="100%" enable-background="new 0 0 280.3 242" y="0px" x="0px" xmlns:cc="http://creativecommons.org/ns#" xmlns:dc="http://purl.org/dc/elements/1.1/"><metadata><rdf:RDF><cc:Work rdf:about=""><dc:format>image/svg+xml</dc:format><dc:type rdf:resource="http://purl.org/dc/dcmitype/StillImage"/><dc:title/></cc:Work></rdf:RDF></metadata><path d="M120-0.0000052695c-66.274,0-120,53.726-120,120s53.726,120,120,120,120-53.726,120-120-53.73-120-120-120zm-51.938,30.687h103.84l25.875,44.656,25.875,44.656-25.844,44.594-25.844,44.594-51.844,0.125-51.844,0.15625-0.71875-1.1562c-0.39713-0.62003-11.788-20.25-25.312-43.625s-24.91-42.975-25.281-43.562c-0.62463-0.98746,1.2905-4.4457,25.219-45.75l25.875-44.688zm13.688,34.188,0,55.031,0,55.031,19.625,0c14.975-0.002,20.72-0.18247,24.219-0.75,18.129-2.9404,31.554-12.23,38.875-26.906,5.001-10.025,6.8976-21.127,5.8125-34.156-0.86946-10.44-2.5707-16.864-6.4688-24.437-1.8558-3.6056-3.2566-5.434-7.0625-9.2812-6.9496-7.0252-13.604-10.557-24.75-13.094-4.0906-0.93111-6.5814-1.0259-27.375-1.2188l-22.89-0.214zm22,21.969,10.125,0.25c11.186,0.28178,14.459,0.86424,19.75,3.4688,6.4436,3.1722,11.196,9.7225,12.938,17.875,1.2499,5.852,1.139,17.673-0.21875,22.656-2.8738,10.546-9.9171,17.717-20.344,20.656-2.1379,0.60275-5.7263,0.89493-12.625,1.0625l-9.625,0.25v-66.219z" fill="#003e53"/></svg>
