<!-- Generator: Adobe Illustrator 18.1.1, SVG Export Plug-In . SVG Version: 6.00 Build 0)  -->
<svg xmlns:rdf="http://www.w3.org/1999/02/22-rdf-syntax-ns#" xmlns="http://www.w3.org/2000/svg" version="1.1" xml:space="preserve" viewBox="0 0 100 100" height="100%" width="100%" enable-background="new 0 0 100 100" y="0px" x="0px" xmlns:cc="http://creativecommons.org/ns#" xmlns:dc="http://purl.org/dc/elements/1.1/"><metadata><rdf:RDF><cc:Work rdf:about=""><dc:format>image/svg+xml</dc:format><dc:type rdf:resource="http://purl.org/dc/dcmitype/StillImage"/><dc:title/></cc:Work></rdf:RDF></metadata><path d="M50,0c-27.614,9.4739E-15-50,22.386-50,50s22.386,50,50,50,50-22.386,50-50-22.386-50-50-50zm-24.844,13.875c1.616-0.074,5.736,0.375,12.844,5.187,3.957-1.099,8.223-1.668,12.438-1.687,4.214,0.02,8.442,0.588,12.406,1.687,9.466-6.417,13.625-5.093,13.625-5.093,2.7,6.832,1.014,11.875,0.5,13.125,3.18,3.473,5.093,7.897,5.093,13.312,0,19.05-11.611,23.24-22.656,24.469,1.779,1.539,3.375,4.56,3.375,9.187,0,6.637-0.062,14.46-0.062,16.094h-24.594c0-1.182-0.041-7.574-0.063-11.718-13.798,3-16.718-5.844-16.718-5.844-2.257-5.733-5.5-7.25-5.5-7.25-4.501-3.079,0.344-3.032,0.344-3.032,4.979,0.35,7.593,5.126,7.593,5.126,4.424,7.582,11.607,5.392,14.438,4.124,0.445-3.204,1.737-5.386,3.156-6.624-11.017-1.254-22.594-5.527-22.594-24.532,0-5.414,1.921-9.839,5.094-13.312-0.515-1.25-2.193-6.293,0.5-13.125,0,0,0.243-0.069,0.781-0.094zm-6.5,49.906c-0.155,0.028-0.29,0.123-0.344,0.25-0.116,0.248,0.078,0.588,0.438,0.75,0.353,0.17,0.766,0.091,0.875-0.156,0.124-0.247-0.109-0.587-0.469-0.75-0.18-0.084-0.344-0.122-0.5-0.094zm2.032,1.719c-0.082,0.016-0.158,0.039-0.219,0.094-0.24,0.222-0.2,0.685,0.125,1.031,0.314,0.346,0.794,0.438,1.031,0.219,0.247-0.222,0.169-0.682-0.156-1.032-0.244-0.258-0.537-0.359-0.781-0.312zm2.031,2.531c-0.094,0.005-0.174,0.01-0.25,0.063-0.311,0.211-0.304,0.746,0,1.187,0.307,0.442,0.79,0.649,1.093,0.438,0.311-0.216,0.336-0.74,0.032-1.188-0.234-0.327-0.593-0.515-0.875-0.5zm2.562,2.813c-0.233-0.035-0.456,0.006-0.593,0.156-0.272,0.3-0.153,0.882,0.281,1.281,0.423,0.41,1.009,0.488,1.281,0.188,0.289-0.297,0.149-0.851-0.281-1.25-0.214-0.203-0.454-0.341-0.688-0.375zm3.438,2.156c-0.402-0.005-0.726,0.175-0.813,0.469-0.113,0.392,0.252,0.829,0.813,1,0.561,0.165,1.098-0.019,1.219-0.407,0.116-0.395-0.252-0.83-0.813-1-0.141-0.044-0.272-0.06-0.406-0.062zm8.312,0.156c-0.133-0.014-0.291,0.006-0.437,0.032-0.575,0.105-0.978,0.528-0.906,0.937,0.073,0.396,0.611,0.637,1.187,0.531,0.586-0.109,0.977-0.539,0.906-0.937-0.056-0.304-0.351-0.519-0.75-0.563zm-4.093,0.5c-0.594,0.011-1.063,0.337-1.063,0.75,0.006,0.403,0.501,0.733,1.094,0.719,0.589-0.007,1.044-0.341,1.031-0.75,0-0.406-0.473-0.73-1.062-0.719z" fill="#221e1b"/></svg>
