<!-- Generator: Adobe Illustrator 18.1.1, SVG Export Plug-In . SVG Version: 6.00 Build 0)  -->
<svg xmlns:rdf="http://www.w3.org/1999/02/22-rdf-syntax-ns#" xmlns="http://www.w3.org/2000/svg" y="0px" xml:space="preserve" height="100%" width="100%" version="1.1" enable-background="new 0 0 100 100" x="0px" xmlns:cc="http://creativecommons.org/ns#" xmlns:dc="http://purl.org/dc/elements/1.1/" viewBox="0 0 100 100"><metadata><rdf:RDF><cc:Work rdf:about=""><dc:format>image/svg+xml</dc:format><dc:type rdf:resource="http://purl.org/dc/dcmitype/StillImage"/><dc:title/></cc:Work></rdf:RDF></metadata><path d="M50,0c-27.614,0-50,22.386-50,50s22.386,50,50,50,50-22.386,50-50-22.386-50-50-50zm-23.781,26.812c2.0942,0,3.8851,0.73266,5.375,2.2188,1.4836,1.4873,2.2188,3.2808,2.2188,5.375-0.000627,2.0936-0.73517,3.8877-2.2188,5.375-1.49,1.487-3.281,2.219-5.375,2.219-2.0936,0-3.887-0.73203-5.375-2.2188-1.4855-1.4873-2.2188-3.2814-2.2188-5.375,0-2.0942,0.73266-3.8883,2.2188-5.375,1.4873-1.4861,3.2814-2.2188,5.375-2.2188zm38.562,18.656c5.1888,0,9.2448,1.2794,12.188,3.875,2.9395,2.5931,4.4062,6.4671,4.4062,11.594v26.656c0,0.42236-0.15183,0.80619-0.46875,1.125-0.31881,0.31881-0.70014,0.46875-1.125,0.46875h-11.469c-0.42487,0-0.80745-0.14994-1.125-0.46875-0.318-0.319-0.468-0.703-0.468-1.125v-24.062c0-2.1545-0.38358-3.7471-1.1875-4.75-0.80643-1.0022-2.2502-1.5-4.3438-1.5-2.6703,0-4.5462,0.77984-5.625,2.3438-1.0782,1.5627-1.625,3.7392-1.625,6.5312v21.438c0,0.42236-0.1512,0.80619-0.46875,1.125-0.31881,0.31881-0.70126,0.46875-1.1562,0.46875h-11.219c-0.42487,0-0.77557-0.14994-1.0938-0.46875-0.31881-0.31881-0.5-0.70264-0.5-1.125v-39.5c0.002-0.425,0.183-0.775,0.502-1.094,0.3188-0.31755,0.66951-0.5,1.0938-0.5h10.875c0.39223,0,0.724,0.0975,0.96875,0.25,0.24224,0.14873,0.39093,0.40458,0.46875,0.8125,0.07155,0.41106,0.13868,0.70757,0.15625,0.84375,0.01192,0.13618,0,0.48401,0,1.0312,2.8203-2.6408,6.5747-3.9688,11.219-3.9688zm-44.156,1.032h11.188c0.42424,0,0.80619,0.18245,1.125,0.5,0.31881,0.31943,0.46875,0.66888,0.46875,1.0938v39.5c0,0.42236-0.14994,0.80619-0.46875,1.125s-0.70139,0.46875-1.125,0.46875h-11.188c-0.42486,0-0.80682-0.14994-1.125-0.46875-0.3188-0.31881-0.46875-0.70264-0.46875-1.125v-39.5c0-0.42487,0.14994-0.77432,0.46875-1.0938,0.31881-0.31755,0.70076-0.5,1.125-0.5z" fill="#3371b7"/></svg>
