<?xml version="1.0" encoding="UTF-8" standalone="no"?>
<!-- Generator: Adobe Illustrator 18.1.1, SVG Export Plug-In . SVG Version: 6.00 Build 0)  -->
<svg id="Calque_1" xmlns:rdf="http://www.w3.org/1999/02/22-rdf-syntax-ns#" xmlns="http://www.w3.org/2000/svg" enable-background="new 0 0 100 100" xml:space="preserve" viewBox="0 0 100 100" height="100%" width="100%" version="1.1" y="0px" x="0px" xmlns:cc="http://creativecommons.org/ns#" xmlns:dc="http://purl.org/dc/elements/1.1/"><metadata id="metadata3170"><rdf:RDF><cc:Work rdf:about=""><dc:format>image/svg+xml</dc:format><dc:type rdf:resource="http://purl.org/dc/dcmitype/StillImage"/><dc:title/></cc:Work></rdf:RDF></metadata><path id="twitter-logo" fill="#4da7de" d="M50,0c-27.614,9.4739E-15-50,22.386-50,50s22.386,50,50,50,50-22.386,50-50-22.386-50-50-50zm15.562,17.156c4.773,0,9.068,1.994,12.094,5.219,3.778-0.743,7.326-2.13,10.532-4.031-1.238,3.874-3.857,7.134-7.282,9.187,3.354-0.401,6.556-1.305,9.532-2.625-2.227,3.328-5.039,6.256-8.282,8.594,0.032,0.711,0.032,1.436,0.032,2.156,0,21.922-16.675,47.188-47.188,47.188-9.368,0-18.096-2.732-25.438-7.438,1.2975,0.153,2.6285,0.219,3.9685,0.219,7.773,0,14.917-2.643,20.594-7.094-7.26-0.132-13.388-4.94-15.5-11.531,1.013,0.195,2.055,0.312,3.125,0.312,1.513,0,2.983-0.214,4.375-0.593-7.589-1.524-13.313-8.213-13.313-16.25,0-0.071-0.001-0.149,0-0.219,2.237,1.241,4.813,1.976,7.532,2.062-4.451-2.975-7.375-8.024-7.375-13.781,0-3.039,0.791-5.893,2.219-8.343,8.181,10.037,20.431,16.618,34.218,17.312-0.283-1.214-0.437-2.482-0.437-3.781,0-9.162,7.432-16.563,16.593-16.563z"/></svg>
